<svg width="500" height="500" viewBox="0 0 500 500" fill="none" xmlns="http://www.w3.org/2000/svg">
<path d="M0 84.8474C0 37.9875 38.0558 1.13045e-05 85 1.13045e-05C131.944 1.13045e-05 170 37.9875 170 84.8474V414.255C170 461.115 131.944 499.102 85 499.102C38.0558 499.102 0 461.115 0 414.255V84.8474Z" fill="#A253FE"/>
<path d="M85 169.695C38.0558 169.695 0 131.707 0 84.8474C0 37.9875 38.0558 1.13045e-05 85 1.13045e-05L415 0C461.944 0 500 37.9874 500 84.8473C500 131.707 461.944 169.695 415 169.695H85Z" fill="#F1501C"/>
<path d="M170 169.695L288 169.695L305.718 186.175L475.004 355.157C508.198 388.292 508.198 442.014 475.004 475.149C441.809 508.284 387.99 508.284 354.795 475.149L261.973 382.493L170 290.976V169.695Z" fill="#04CE84"/>
</svg>
