<svg width="3250" height="500" viewBox="0 0 3250 500" fill="none" xmlns="http://www.w3.org/2000/svg">
<path d="M2875.24 55.9401C2891.29 11.8359 2940.04 -10.9044 2984.14 5.14821C3028.24 21.2008 3050.98 69.9675 3034.93 114.072L2914.84 444.06C2898.79 488.164 2850.03 510.904 2805.93 494.852C2761.83 478.799 2739.1 430.033 2755.15 385.928L2875.24 55.9401Z" fill="#04CE84"/>
<path d="M3124.76 55.9401C3108.71 11.8359 3059.96 -10.9044 3015.86 5.14821C2971.76 21.2008 2949.02 69.9675 2965.07 114.072L3085.16 444.06C3101.21 488.164 3149.97 510.904 3194.07 494.852C3238.17 478.799 3260.9 430.033 3244.85 385.928L3124.76 55.9401Z" fill="#A253FE"/>
<path d="M2530 85.6562C2530 38.7862 2568.06 0.790612 2615 0.790612C2661.94 0.790612 2700 38.7862 2700 85.6562V415.134C2700 462.004 2661.94 500 2615 500C2568.06 500 2530 462.004 2530 415.134V85.6562Z" fill="#A253FE"/>
<path d="M2200 85.6562C2200 38.7862 2238.06 0.790612 2285 0.790612C2331.94 0.790612 2370 38.7862 2370 85.6562V415.134C2370 462.004 2331.94 500 2285 500C2238.06 500 2200 462.004 2200 415.134V85.6562Z" fill="#04CE84"/>
<path d="M2674.67 144.875C2707.86 111.733 2707.86 57.9986 2674.67 24.8566C2641.47 -8.28552 2587.65 -8.28552 2554.46 24.8566L2389.88 189.173C2356.69 222.315 2356.69 276.048 2389.88 309.191C2423.08 342.333 2476.9 342.333 2510.09 309.191L2674.67 144.875Z" fill="#0FBCFE"/>
<path d="M2225.1 144.875C2191.91 111.733 2191.91 57.9986 2225.1 24.8566C2258.3 -8.28552 2312.12 -8.28552 2345.31 24.8566L2510.5 189.786C2543.7 222.928 2543.7 276.662 2510.5 309.804C2477.31 342.946 2423.49 342.946 2390.29 309.804L2225.1 144.875Z" fill="#F1501C"/>
<path d="M1924.47 312.566C1888.51 342.741 1834.9 338.05 1804.72 302.089C1774.55 266.128 1779.24 212.513 1815.2 182.338L2007.91 20.637C2043.87 -9.53817 2097.48 -4.84754 2127.66 31.1138C2157.83 67.0752 2153.14 120.689 2117.18 150.865L1924.47 312.566Z" fill="#04CE84"/>
<path d="M1650 85C1650 38.0558 1688.06 0 1735 0C1781.94 0 1820 38.0558 1820 85V415C1820 461.944 1781.94 500 1735 500C1688.06 500 1650 461.944 1650 415V85Z" fill="#A253FE"/>
<path d="M1735 170C1688.06 170 1650 131.944 1650 85C1650 38.0558 1688.06 0 1735 0H2065C2111.94 0 2150 38.0558 2150 85C2150 131.944 2111.94 170 2065 170H1735Z" fill="#F1501C"/>
<path d="M1265 209C1265 162.056 1303.06 124 1350 124C1396.94 124 1435 162.056 1435 209V290C1435 336.944 1396.94 375 1350 375C1303.06 375 1265 336.944 1265 290V209Z" fill="#04CE84"/>
<path d="M1185 500C1138.06 500 1100 461.944 1100 415C1100 368.056 1138.06 330 1185 330H1515C1561.94 330 1600 368.056 1600 415C1600 461.944 1561.94 500 1515 500H1185Z" fill="#A253FE"/>
<path d="M1185 170C1138.06 170 1100 131.944 1100 85C1100 38.0558 1138.06 0 1185 0H1515C1561.94 0 1600 38.0558 1600 85C1600 131.944 1561.94 170 1515 170H1185Z" fill="#F1501C"/>
<path d="M550 84.8474C550 37.9875 588.056 1.13045e-05 635 1.13045e-05C681.944 1.13045e-05 720 37.9875 720 84.8474V414.255C720 461.115 681.944 499.102 635 499.102C588.056 499.102 550 461.115 550 414.255V84.8474Z" fill="#A253FE"/>
<path d="M635 169.695C588.056 169.695 550 131.707 550 84.8474C550 37.9875 588.056 1.13045e-05 635 1.13045e-05L965 0C1011.94 0 1050 37.9874 1050 84.8473C1050 131.707 1011.94 169.695 965 169.695H635Z" fill="#F1501C"/>
<path d="M720 169.695L838 169.695L855.718 186.175L1025 355.157C1058.2 388.292 1058.2 442.014 1025 475.149C991.809 508.284 937.99 508.284 904.795 475.149L811.973 382.493L720 290.976V169.695Z" fill="#04CE84"/>
<path d="M165 85C165 38.0558 203.056 0 250 0C296.944 0 335 38.0558 335 85V415C335 461.944 296.944 500 250 500C203.056 500 165 461.944 165 415V85Z" fill="#F1501C"/>
<path d="M85 170C38.0558 170 0 131.944 0 85C0 38.0558 38.0558 0 85 0H415C461.944 0 500 38.0558 500 85C500 131.944 461.944 170 415 170H85Z" fill="#04CE84"/>
</svg>
